<svg width="225" height="128" viewBox="0 0 225 128" fill="none" xmlns="http://www.w3.org/2000/svg">
<path d="M204.653 27.7949C204.653 68.5733 196.661 95.9708 166.275 108.856V128H58.7092V108.856C28.3228 95.9708 20.3335 68.5733 20.3335 27.7949H30.2465C30.2465 57.0542 34.568 74.329 44.6978 85.568C50.4381 91.933 58.2662 96.6065 68.6315 99.8533C80.174 103.471 94.52 105.227 112.493 105.227C130.467 105.227 144.813 103.471 156.352 99.8533C166.718 96.6065 174.546 91.933 180.286 85.568C190.416 74.329 194.74 57.0542 194.74 27.7949H204.653Z" fill="black"/>
<path d="M177.576 84.2813C165.001 95.702 145.742 102.01 112.494 102.01C79.2447 102.01 59.9856 95.702 47.4115 84.2813C32.0928 70.3669 9.78548 0 112.494 0C215.202 0 192.894 70.3669 177.576 84.2813Z" fill="#BF8135"/>
</svg>
