<svg width="145" height="144" viewBox="0 0 145 144" fill="none" xmlns="http://www.w3.org/2000/svg">
<path d="M72.8303 0C44.0202 0 20.667 23.3638 20.667 52.1869V104.374H46.7486V144H124.994V52.1869C124.994 23.3638 101.64 0 72.8303 0ZM40.3772 52.1869C26.0719 52.1869 27.2593 45.7557 27.8883 38.8181C29.5522 20.448 50.9175 4.08886 72.8303 4.08886C94.743 4.08886 113.745 18.2881 117.113 38.8144C118.241 45.6887 116.134 52.1832 105.118 52.1832H36.7061L40.3772 52.1869Z" fill="#BF8135"/>
<path d="M62.2372 63.5186C54.1748 71.5846 41.1024 71.5846 33.04 63.5186" stroke="#1C2029" stroke-width="3" stroke-miterlimit="10" stroke-linecap="round"/>
<path d="M94.8251 100.959C90.8424 113.196 77.7029 119.888 65.4717 115.903" stroke="#1C2029" stroke-width="3" stroke-miterlimit="10" stroke-linecap="round"/>
<path d="M75.294 19.2117C68.594 0.89745 40.5694 18.9398 69.0593 43.4469C105.835 35.7421 89.9968 6.40512 75.294 19.2117Z" fill="#1C2029"/>
</svg>
