<?xml version="1.0" encoding="UTF-8"?>
<svg id="Layer_2" data-name="Layer 2" xmlns="http://www.w3.org/2000/svg" xmlns:xlink="http://www.w3.org/1999/xlink" viewBox="0 0 950.38 927.53">
  <defs>
    <style>
      .cls-1 {
        mask: url(#mask);
      }

      .cls-2 {
        fill: #fff6e6;
      }

      .cls-3 {
        fill: #cf9e61;
      }

      .cls-4 {
        fill: #bf8135;
      }

      .cls-5 {
        fill: url(#radial-gradient-2);
      }

      .cls-6 {
        fill: url(#radial-gradient);
      }

      .cls-7 {
        mask: url(#mask-1);
      }
    </style>
    <radialGradient id="radial-gradient" cx="476.58" cy="332.8" fx="476.58" fy="332.8" r="721.1" gradientTransform="translate(0 41.6) scale(1 .88)" gradientUnits="userSpaceOnUse">
      <stop offset="0" stop-color="#000"/>
      <stop offset=".2" stop-color="#020202"/>
      <stop offset=".32" stop-color="#0a0a0a"/>
      <stop offset=".42" stop-color="#191919"/>
      <stop offset=".51" stop-color="#2d2d2d"/>
      <stop offset=".59" stop-color="#474747"/>
      <stop offset=".6" stop-color="#4d4d4d"/>
      <stop offset=".68" stop-color="#757575"/>
      <stop offset=".76" stop-color="#9c9c9c"/>
      <stop offset=".83" stop-color="#b5b5b5"/>
      <stop offset=".87" stop-color="#bebebe"/>
      <stop offset="1" stop-color="#282828"/>
    </radialGradient>
    <mask id="mask" x="-40.15" y="-107.43" width="1030.09" height="1081.9" maskUnits="userSpaceOnUse">
      <rect class="cls-6" x="-40.15" y="-107.43" width="1030.09" height="1081.9"/>
    </mask>
    <radialGradient id="radial-gradient-2" cx="1053.82" cy="410.19" fx="1053.82" fy="410.19" r="81.52" gradientTransform="translate(-761.59 -1044.63) scale(1.17 3.55)" gradientUnits="userSpaceOnUse">
      <stop offset="0" stop-color="#0a0a0a"/>
      <stop offset=".13" stop-color="#0e0e0e"/>
      <stop offset=".27" stop-color="#1a1a1a"/>
      <stop offset=".4" stop-color="#2f2f2f"/>
      <stop offset=".54" stop-color="#4c4c4c"/>
      <stop offset=".68" stop-color="#717171"/>
      <stop offset=".7" stop-color="#787878"/>
      <stop offset="1" stop-color="#fff"/>
    </radialGradient>
    <mask id="mask-1" x="309.24" y="59.16" width="334.22" height="712.08" maskUnits="userSpaceOnUse">
      <rect class="cls-5" x="309.24" y="59.16" width="334.22" height="712.08"/>
    </mask>
  </defs>
  <g id="Layer_1-2" data-name="Layer 1">
    <path class="cls-2" d="m950.31,463.99C945.69,183.92,718.46,0,475.19,0S4.69,183.92.08,463.99c-4.36,264.6,178.68,463.53,475.12,463.53s479.47-198.94,475.12-463.53Z"/>
    <g class="cls-1">
      <path class="cls-3" d="m950.31,463.99C945.69,183.92,718.46,0,475.19,0S4.69,183.92.08,463.99c-4.36,264.6,178.68,463.53,475.12,463.53s479.47-198.94,475.12-463.53Z"/>
    </g>
    <ellipse class="cls-2" cx="475.19" cy="403.61" rx="95.04" ry="283.29"/>
    <g class="cls-7">
      <path class="cls-4" d="m475.19,686.9c-17.82,0-95.04-70.82-95.04-283.29,0-212.47,77.22-283.29,95.04-283.29,19.51,0,95.04,70.82,95.04,283.29s-75.53,283.29-95.04,283.29Z"/>
    </g>
  </g>
</svg>