<svg width="232" height="144" viewBox="0 0 232 144" fill="none" xmlns="http://www.w3.org/2000/svg">
<path d="M170.349 52.163C170.349 37.7573 158.4 26.0815 143.657 26.0815C158.4 26.0815 170.349 14.4057 170.349 0C170.349 14.4057 182.298 26.0815 197.041 26.0815C182.298 26.0815 170.349 37.7573 170.349 52.163Z" fill="#BF8135"/>
<path d="M196.939 71.3104C196.939 63.183 190.196 56.5939 181.878 56.5939C190.196 56.5939 196.939 50.0049 196.939 41.8774C196.939 50.0049 203.682 56.5939 212 56.5939C203.682 56.5939 196.939 63.183 196.939 71.3104Z" fill="#BF8135"/>
<path d="M97.5664 144C139.815 144 168.596 144 174.062 118.365C182.479 78.9043 139.815 56.5713 97.5664 56.5713C55.3178 56.5713 12.6539 78.9043 21.071 118.365C26.5365 144 55.3178 144 97.5664 144Z" fill="#BF8135"/>
</svg>
